HIERARCHY
ROOT Hips
{
    OFFSET 0.000000 0.000000 0.000000
    CHANNELS 6 Xposition Yposition Zposition Zrotation Xrotation Yrotation
    JOINT Spine
    {
        OFFSET -0.000000 7.897928 0.000000
        CHANNELS 3 Zrotation Xrotation Yrotation
        JOINT Spine1
        {
            OFFSET -0.000000 22.881742 0.000000
            CHANNELS 3 Zrotation Xrotation Yrotation
            JOINT Neck
            {
                OFFSET -0.000000 22.787771 2.071616
                CHANNELS 3 Zrotation Xrotation Yrotation
                JOINT Head
                {
                    OFFSET -0.000000 13.484266 -1.926324
                    CHANNELS 3 Zrotation Xrotation Yrotation
                    End Site
                    {
                        OFFSET -0.000000 24.079046 0.000000
                    }
                }
            }
            JOINT LeftShoulder
            {
                OFFSET 3.854963 21.096247 -0.110468
                CHANNELS 3 Zrotation Xrotation Yrotation
                JOINT LeftArm
                {
                    OFFSET 10.572188 0.000000 0.000000
                    CHANNELS 3 Zrotation Xrotation Yrotation
                    JOINT LeftForeArm
                    {
                        OFFSET 34.932854 0.000000 0.000000
                        CHANNELS 3 Zrotation Xrotation Yrotation
                        JOINT LeftHand
                        {
                            OFFSET 23.279285 0.000000 0.000000
                            CHANNELS 3 Zrotation Xrotation Yrotation
                            End Site
                            {
                                OFFSET 14.447429 0.000000 0.000000
                            }
                        }
                    }
                }
            }
            JOINT RightShoulder
            {
                OFFSET -3.825334 21.096247 -0.110468
                CHANNELS 3 Zrotation Xrotation Yrotation
                JOINT RightArm
                {
                    OFFSET -10.572188 0.000000 0.000000
                    CHANNELS 3 Zrotation Xrotation Yrotation
                    JOINT RightForeArm
                    {
                        OFFSET -34.932854 0.000000 0.000000
                        CHANNELS 3 Zrotation Xrotation Yrotation
                        JOINT RightHand
                        {
                            OFFSET -23.279285 0.000000 0.000000
                            CHANNELS 3 Zrotation Xrotation Yrotation
                            End Site
                            {
                                OFFSET -14.447429 0.000000 0.000000
                            }
                        }
                    }
                }
            }
        }
    }
    JOINT LeftUpLeg
    {
        OFFSET 9.631618 0.000000 0.000000
        CHANNELS 3 Zrotation Xrotation Yrotation
        JOINT LeftLeg
        {
            OFFSET -0.000000 -35.385456 0.000000
            CHANNELS 3 Zrotation Xrotation Yrotation
            JOINT LeftFoot
            {
                OFFSET -0.000000 -43.284000 0.000000
                CHANNELS 3 Zrotation Xrotation Yrotation
                JOINT LeftToeBase
                {
                    OFFSET -0.000000 -6.260552 14.447429
                    CHANNELS 3 Zrotation Xrotation Yrotation
                    End Site
                    {
                        OFFSET -0.000000 0.000000 3.852648
                    }
                }
            }
        }
    }
    JOINT RightUpLeg
    {
        OFFSET -9.631618 0.000000 0.000000
        CHANNELS 3 Zrotation Xrotation Yrotation
        JOINT RightLeg
        {
            OFFSET -0.000000 -35.385456 0.000000
            CHANNELS 3 Zrotation Xrotation Yrotation
            JOINT RightFoot
            {
                OFFSET -0.000000 -43.284000 0.000000
                CHANNELS 3 Zrotation Xrotation Yrotation
                JOINT RightToeBase
                {
                    OFFSET -0.000000 -6.260552 14.447429
                    CHANNELS 3 Zrotation Xrotation Yrotation
                    End Site
                    {
                        OFFSET -0.000000 0.000000 3.852648
                    }
                }
            }
        }
    }
}
MOTION
Frames:    7
Frame Time:    0.008333
-130.428558    88.747009    39.651497    -1.307411    -1.454649    86.061684    2.182348    -4.948476    0.522617    -1.360763    -0.730993    0.419612    -1.726601    18.286919    -10.214578    11.720313    -3.507871    -8.656973    17.158117    2.301688    2.132879    -18.246279    6.939550    -9.127316    2.972977    -7.507496    -1.739890    -7.506181    -7.456860    -0.090287    -12.660188    0.787836    10.257531    14.982287    -0.567651    0.432312    -0.966845    -5.488218    0.405420    0.585293    -5.481816    0.592429    3.720604    1.826231    3.612101    -4.660869    8.481935    -10.674704    1.766268    -9.766397    21.068424    0.000000    0.000000    0.000000    0.072707    -0.838230    1.729699    4.372371    8.712629    4.445815    -3.197491    -7.000693    -9.954450    0.000000    0.000000    0.000000    
-130.467224    88.749840    39.665661    -1.297960    -1.442528    86.037895    2.206026    -4.911970    0.532093    -1.452778    -0.788267    0.427634    -1.564299    18.292475    -10.215805    11.627523    -3.405550    -8.681333    17.265406    2.279078    2.119184    -18.321625    6.910186    -9.123039    2.940206    -7.490115    -1.727639    -7.954813    -7.431312    -0.215372    -12.498823    0.768602    10.221955    14.915980    -0.629642    0.409572    -1.013717    -5.495668    0.533017    0.564100    -5.488305    0.545146    3.707138    1.769688    3.639608    -4.631305    8.557467    -10.649508    1.750811    -9.778323    21.037018    0.000000    0.000000    0.000000    0.073134    -0.883528    1.644541    4.349908    8.790997    4.439803    -3.203826    -7.028887    -9.840552    0.000000    0.000000    0.000000    
-130.484146    88.754211    39.671803    -1.289082    -1.432652    86.036598    2.191105    -4.890562    0.504992    -1.420101    -0.832278    0.401095    -1.640731    18.282337    -10.180993    11.670646    -3.277425    -8.651704    17.207706    2.297125    2.149374    -18.294004    6.895375    -9.111247    2.868935    -7.478519    -1.738731    -7.770967    -7.425325    -0.148840    -12.513834    0.777240    10.259012    14.908568    -0.658683    0.426431    -1.023554    -5.503580    0.556308    0.633917    -5.495825    0.509466    3.695167    1.749072    3.629649    -4.617932    8.587003    -10.635862    1.725728    -9.780601    21.030527    0.000000    0.000000    0.000000    0.071652    -0.894074    1.620838    4.339025    8.811477    4.471410    -3.194442    -7.024166    -9.854651    0.000000    0.000000    0.000000    
-130.495865    88.757263    39.679535    -1.279307    -1.428790    86.018967    2.171843    -4.881149    0.495823    -1.377690    -0.857232    0.392920    -1.660431    18.299578    -10.176779    11.652179    -3.225050    -8.656312    17.183777    2.303383    2.155479    -18.315495    6.893714    -9.096887    2.871044    -7.468824    -1.722784    -7.958608    -7.412878    -0.190486    -12.554898    0.717395    10.249804    14.949175    -0.660046    0.461582    -1.037615    -5.506010    0.564259    0.694221    -5.498082    0.470608    3.691834    1.758050    3.642985    -4.607897    8.584670    -10.647789    1.703572    -9.780053    21.044378    0.000000    0.000000    0.000000    0.076468    -0.891129    1.609738    4.327272    8.800997    4.427055    -3.178258    -7.003354    -9.766164    0.000000    0.000000    0.000000    
-130.507843    88.759033    39.686371    -1.271127    -1.427111    86.013138    2.197159    -4.864586    0.488372    -1.432196    -0.903149    0.383708    -1.596651    18.335104    -10.167971    11.619822    -3.193660    -8.655034    17.219353    2.321654    2.153471    -18.336481    6.869195    -9.094169    2.857163    -7.476335    -1.702230    -8.107434    -7.416579    -0.251405    -12.480400    0.748640    10.293061    14.900839    -0.698958    0.436043    -1.019883    -5.543124    0.595977    0.688189    -5.535445    0.402321    3.695757    1.760053    3.633586    -4.617764    8.577808    -10.616986    1.693897    -9.769763    21.031359    0.000000    0.000000    0.000000    0.077478    -0.891792    1.634408    4.334269    8.794776    4.417057    -3.183067    -6.990858    -9.777866    0.000000    0.000000    0.000000    
-130.519226    88.760529    39.692020    -1.261497    -1.419789    86.013794    2.176857    -4.857615    0.467693    -1.392094    -0.927178    0.364072    -1.615097    18.350626    -10.155019    11.605862    -3.154844    -8.648335    17.249775    2.267272    2.164623    -18.422441    6.894154    -9.075288    2.844212    -7.477484    -1.668415    -8.187523    -7.417745    -0.263133    -12.510846    0.758654    10.315266    14.914112    -0.722633    0.453325    -1.017517    -5.569107    0.604239    0.719336    -5.561382    0.380169    3.685644    1.769420    3.630436    -4.606545    8.563962    -10.604428    1.676862    -9.762408    21.023972    0.000000    0.000000    0.000000    0.076539    -0.882591    1.615628    4.324674    8.789811    4.430506    -3.184366    -6.995357    -9.762053    0.000000    0.000000    0.000000    
-130.532074    88.760750    39.698948    -1.263424    -1.420490    86.007484    2.180501    -4.866234    0.463553    -1.398081    -0.938080    0.359613    -1.559805    18.364851    -10.159613    11.562496    -3.132025    -8.661845    17.182503    2.314753    2.175009    -18.337563    6.821407    -9.105711    2.776625    -7.419670    -1.670820    -8.188482    -7.362432    -0.240543    -12.494960    0.753338    10.304682    14.915736    -0.726334    0.467638    -1.023642    -5.609044    0.628135    0.758240    -5.601521    0.293796    3.687058    1.766029    3.625951    -4.606566    8.543453    -10.560349    1.678403    -9.744076    21.002417    0.000000    0.000000    0.000000    0.079863    -0.883927    1.645617    4.332562    8.760442    4.393661    -3.170731    -6.972970    -9.749729    0.000000    0.000000    0.000000    
